{"title":"Empire of Assassins (2011) DvdRip Xvid {1337x}-X","uid":6521331,"size":735154176,"categoryP":"video","categoryS":"movies","magnet":"?xt=urn:btih:cddea94b7eb4403c01db7a66ffc6bd886d755419&amp;dn=Empire+of+Assassins+%282011%29+DvdRip+Xvid+%7B1337x%7D-X&amp;tr=udp%3A%2F%2Ftracker.openbittorrent.com%3A80&amp;tr=udp%3A%2F%2Fopen.demonii.com%3A1337&amp;tr=udp%3A%2F%2Ftracker.coppersurfer.tk%3A6969&amp;tr=udp%3A%2F%2Fexodus.desync.com%3A6969","seeders":0,"leechers":1,"uploader":".BONE.","files":1,"time":1310003855,"description":"One man is out for revenge after a life-altering event destroys his family. After years of preparation he seeks out his justice, while unaware of their relation, on his brother. As these two brothers seek to destroy each other certain memories are triggered and although many trusted allies will be dishonest and misleading neither one will stop until they know the truth.\n &lt;a href=&quot;\nhttp://leetleech.org/images/15663982191022844769.jpg&quot; rel=&quot;nofollow&quot; target=&quot;_NEW&quot;&gt;\nhttp://leetleech.org/images/15663982191022844769.jpg&lt;/a&gt;\n\nVideo\nID : 0\nFormat : MPEG-4 Visual\nFormat profile : Advanced Simple@L5\nFormat settings, BVOP : Yes\nFormat settings, QPel : No\nFormat settings, GMC : No warppoints\nFormat settings, Matrix : Default (H.263)\nMuxing mode : Packed bitstream\nCodec ID : XVID\nCodec ID/Hint : XviD\nDuration : 1h 32mn\nBit rate : 945 Kbps\nWidth : 656 pixels\nHeight : 368 pixels\nDisplay aspect ratio : 16:9\nFrame rate : 23.976 fps\nColor space : YUV\nChroma subsampling : 4:2:0\nBit depth : 8 bits\nScan type : Progressive\nBits/(Pixel*Frame) : 0.163\nStream size : 624 MiB (89%)\nWriting library : XviD 57\n\nAudio\nID : 1\nFormat : MPEG Audio\nFormat version : Version 1\nFormat profile : Layer 3\nMode : Joint stereo\nMode extension : MS Stereo\nCodec ID : 55\nCodec ID/Hint : MP3\nDuration : 1h 32mn\nBit rate mode : Variable\nBit rate : 104 Kbps\nNominal bit rate : 112 Kbps\nChannel(s) : 2 channels\nSampling rate : 48.0 KHz\nStream size : 68.5 MiB (10%)\nAlignment : Aligned on interleaves\nInterleave, duration : 24 ms (0.58 video frame)\nInterleave, preload duration : 177 ms\nWriting library : LAME3.97\nEncoding settings : -m j -V 4 -q 2 -lowpass 16 --abr 112\n\nIMDB &lt;a href=&quot;\nhttp://www.imdb.com/title/tt1891794/&quot; rel=&quot;nofollow&quot; target=&quot;_NEW&quot;&gt;\nhttp://www.imdb.com/title/tt1891794/&lt;/a&gt;","torrent":{"xt":"urn:btih:cddea94b7eb4403c01db7a66ffc6bd886d755419","amp;dn":"Empire+of+Assassins+%282011%29+DvdRip+Xvid+%7B1337x%7D-X","amp;tr":["udp%3A%2F%2Ftracker.openbittorrent.com%3A80","udp%3A%2F%2Fopen.demonii.com%3A1337","udp%3A%2F%2Ftracker.coppersurfer.tk%3A6969","udp%3A%2F%2Fexodus.desync.com%3A6969"],"infoHash":"cddea94b7eb4403c01db7a66ffc6bd886d755419","infoHashBuffer":{"type":"Buffer","data":[205,222,169,75,126,180,64,60,1,219,122,102,255,198,189,136,109,117,84,25]},"announce":[],"urlList":[]}}